<svg id="Capa_1" enable-background="new 0 0 495.594 495.594" height="512" viewBox="0 0 495.594 495.594" width="512" xmlns="http://www.w3.org/2000/svg"><g><path d="m449.257 284.784-95.86-66.29-63.793-44.743-51.909 248.801 10.102 73.041c1.6.01 3.21-.48 4.59-1.45l143.85-101.34c3.23-2.28 4.39-6.53 2.76-10.13l-22.6-49.93 71.85-34.85c5.24-2.539 5.8-9.799 1.01-13.109z" fill="#d7d0d6"/><path d="m308.328 416.725-132.635-220.971-29.996 20.32-99.36 68.71c-4.79 3.31-4.23 10.57 1.01 13.11l71.85 34.85-22.6 49.93c-1.63 3.6-.47 7.85 2.76 10.13l143.85 101.34c1.35.96 2.93 1.44 4.52 1.45h.07v-.091z" fill="#d7d0d6"/><g><path d="m167.608 273.391 18.569 48.573 61.62 173.63 61.62-173.63 20.646-48.573z" fill="#b5adb6"/></g><path d="m331.029 279.327c0 16.57-8.063 32.104-21.615 41.639l-16.059 11.3c-10.512 7.397-23.051 11.366-35.905 11.366h-19.308c-12.853 0-25.393-3.97-35.905-11.366l-16.059-11.3c-13.551-9.536-21.615-25.069-21.615-41.639v-136.685h166.464v136.685z" fill="#fff3de"/><path d="m357.038 86.989c0-28.604-12.004-55.895-33.089-75.225l-2.757-2.527c-10.509-9.635-25.799-11.962-38.699-5.891l-29.914 14.079c-3.029 1.425-6.535 1.425-9.564 0l-29.914-14.08c-12.9-6.071-28.19-3.744-38.699 5.891l-2.757 2.527c-21.084 19.33-33.089 46.621-33.089 75.225v84.28h218.482z" fill="#d7d0d6"/><g><path d="m251.503 146.95h-6.412-45.803v-4.308h-34.723v136.685c0 16.57 8.064 32.104 21.615 41.639l16.059 11.3c10.512 7.397 23.051 11.366 35.904 11.366h19.308c2.587 0 5.16-.168 7.707-.486-10.11-1.259-19.801-4.973-28.197-10.881l-16.058-11.299c-13.552-9.536-21.615-25.069-21.615-41.64v-14.578c0-4.967 3.497-9.237 8.362-10.24 15.095-3.113 27.946-12.432 35.76-25.166 2.22-3.618 7.531-3.665 9.748-.044 9.669 15.79 27.077 26.348 46.909 26.348h9.582c7.583 0 14.808-1.536 21.381-4.313v-104.383z" fill="#ffe5c2"/><g><path d="m300.82 231.778c-1.095 0-2.208-.241-3.26-.75l-36.272-17.507c-8.476-3.838-18.11-3.659-26.439.49l-24.742 12.199c-3.717 1.832-8.212.305-10.043-3.411-1.832-3.715-.305-8.212 3.41-10.043l24.714-12.184c12.354-6.156 26.684-6.422 39.289-.714l36.615 17.668c3.729 1.804 5.29 6.289 3.486 10.018-1.296 2.675-3.971 4.234-6.758 4.234z" fill="#b5adb6"/></g><path d="m186.945 235.647h9.582c19.316 0 34.975-15.659 34.975-34.975v-33.722h-79.532v33.722c0 19.316 15.659 34.975 34.975 34.975z" fill="#b5adb6"/><path d="m309.649 235.647h-9.582c-19.316 0-34.975-15.659-34.975-34.975v-33.722h79.533v33.722c-.001 19.316-15.66 34.975-34.976 34.975z" fill="#b5adb6"/><g fill="#a79ba7"><path d="m182.647 200.672v-33.722h-30.677v33.722c0 19.316 15.659 34.975 34.975 34.975h9.583c3.676 0 7.231-.571 10.56-1.622-14.161-4.474-24.441-17.713-24.441-33.353z"/><path d="m295.768 200.672v-33.722h-30.677v33.722c0 19.316 15.659 34.975 34.975 34.975h9.583c3.676 0 7.234-.571 10.562-1.623-14.161-4.474-24.443-17.712-24.443-33.352z"/></g></g><g><path d="m352.451 126.95h-128.396c-20.497 0-37.113-16.616-37.113-37.113v-2.848c0-28.603 12.004-55.894 33.087-75.224l2.758-2.529c.327-.3.672-.571 1.009-.857l-10.695-5.034c-12.9-6.071-28.19-3.744-38.7 5.891l-2.757 2.527c-21.084 19.33-33.089 46.621-33.089 75.225v84.28h33.252 15.134 170.096v-44.581c-1.515.168-3.044.263-4.586.263z" fill="#c9bfc8"/><path d="m358.038 178.95h-219.482c-19.838 0-38.829-7.369-53.476-20.748l-12.15-11.1c-5.872-5.364-6.284-14.473-.92-20.344l2.158-2.362c5.364-5.872 14.472-6.284 20.344-.92l12.151 11.099c8.735 7.98 20.062 12.375 31.893 12.375h213.895c15.397 0 30.237-5.758 41.605-16.142l8.026-7.332c5.872-5.364 14.981-4.952 20.345.92l2.157 2.362c5.364 5.872 4.952 14.981-.92 20.345l-12.151 11.1c-14.646 13.378-33.637 20.747-53.475 20.747z" fill="#d7d0d6"/></g></g></svg>